<?xml version="1.0" encoding="UTF-8" standalone="no"?>
<!-- Created with Inkscape (http://www.inkscape.org/) -->

<svg
   xmlns:dc="http://purl.org/dc/elements/1.1/"
   xmlns:cc="http://creativecommons.org/ns#"
   xmlns:rdf="http://www.w3.org/1999/02/22-rdf-syntax-ns#"
   xmlns:svg="http://www.w3.org/2000/svg"
   xmlns="http://www.w3.org/2000/svg"
   xmlns:sodipodi="http://sodipodi.sourceforge.net/DTD/sodipodi-0.dtd"
   xmlns:inkscape="http://www.inkscape.org/namespaces/inkscape"
   width="5.5133929in"
   height="2.3586309in"
   viewBox="0 0 140.04018 59.909225"
   version="1.1"
   id="svg8"
   inkscape:version="0.92.4 5da689c313, 2019-01-14"
   sodipodi:docname="dactyl-starter-kit-logo.svg"
   style="enable-background:new">
  <defs
     id="defs2">
    <clipPath
       clipPathUnits="userSpaceOnUse"
       id="clipPath4575">
      <ellipse
         style="fill:#4d4d4d;fill-opacity:1;stroke:#000000;stroke-width:0;stroke-miterlimit:4;stroke-dasharray:none;stroke-dashoffset:0;stroke-opacity:1"
         id="ellipse4577"
         cx="77.01265"
         cy="246.25668"
         rx="70.020088"
         ry="29.954613" />
    </clipPath>
    <filter
       inkscape:collect="always"
       style="color-interpolation-filters:sRGB"
       id="filter4608">
      <feBlend
         inkscape:collect="always"
         mode="difference"
         in2="BackgroundImage"
         id="feBlend4610" />
    </filter>
    <clipPath
       clipPathUnits="userSpaceOnUse"
       id="clipPath4697">
      <ellipse
         style="fill:#010101;fill-opacity:1;stroke:#000000;stroke-width:0;stroke-miterlimit:4;stroke-dasharray:none;stroke-dashoffset:0;stroke-opacity:1"
         id="ellipse4699"
         cx="77.315025"
         cy="246.10551"
         rx="70.020088"
         ry="29.954613" />
    </clipPath>
  </defs>
  <sodipodi:namedview
     id="base"
     pagecolor="#ffffff"
     bordercolor="#666666"
     borderopacity="1.0"
     inkscape:pageopacity="0.0"
     inkscape:pageshadow="2"
     inkscape:zoom="1.4"
     inkscape:cx="358.18205"
     inkscape:cy="142.90828"
     inkscape:document-units="mm"
     inkscape:current-layer="layer1"
     showgrid="false"
     units="in"
     inkscape:pagecheckerboard="true"
     inkscape:window-width="1920"
     inkscape:window-height="1024"
     inkscape:window-x="0"
     inkscape:window-y="1"
     inkscape:window-maximized="1"
     fit-margin-top="0"
     fit-margin-left="0"
     fit-margin-right="0"
     fit-margin-bottom="0" />
  <metadata
     id="metadata5">
    <rdf:RDF>
      <cc:Work
         rdf:about="">
        <dc:format>image/svg+xml</dc:format>
        <dc:type
           rdf:resource="http://purl.org/dc/dcmitype/StillImage" />
        <dc:title></dc:title>
      </cc:Work>
    </rdf:RDF>
  </metadata>
  <g
     inkscape:label="Layer 1"
     inkscape:groupmode="layer"
     id="layer1"
     transform="translate(-7.2949366,-216.1509)">
    <ellipse
       ry="29.954613"
       rx="70.020088"
       cy="246.10551"
       cx="77.315025"
       id="ellipse4573"
       style="fill:#010101;fill-opacity:1;stroke:#000000;stroke-width:0;stroke-miterlimit:4;stroke-dasharray:none;stroke-dashoffset:0;stroke-opacity:1" />
    <g
       aria-label="Dactyl
Starter Kit"
       clip-path="url(#clipPath4575)"
       style="font-style:normal;font-variant:normal;font-weight:normal;font-stretch:normal;font-size:7.76111126px;line-height:125%;font-family:'Roboto Light';-inkscape-font-specification:'Roboto Light, ';text-align:center;letter-spacing:0px;word-spacing:0px;text-anchor:middle;fill:#ffffff;fill-opacity:1;stroke:none;stroke-width:0.26458332px;stroke-linecap:butt;stroke-linejoin:miter;stroke-opacity:1"
       id="text3715">
      <path
         d="m 45.227063,234.67926 q 0,3.21028 -1.763889,5.715 -1.728611,2.50473 -4.7625,3.66889 -2.328333,0.88195 -5.221111,0.88195 h -6.879167 v -20.24945 h 7.090833 q 3.598334,0 6.350001,1.41111 3.033888,1.5875 4.374444,4.65667 0.811389,1.86972 0.811389,3.91583 z m -4.868333,0.17639 q 0,-2.99861 -2.081389,-4.62139 -2.081389,-1.62277 -5.397501,-1.62277 h -1.552222 v 12.3825 h 1.552222 q 3.810001,0 5.891389,-2.01084 1.587501,-1.55222 1.587501,-4.1275 z"
         style="font-style:normal;font-variant:normal;font-weight:bold;font-stretch:normal;font-size:35.27777863px;line-height:127.99999714%;font-family:'Blue Highway';-inkscape-font-specification:'Blue Highway Bold';text-align:center;text-anchor:middle;fill:#ffffff;fill-opacity:1;stroke-width:0.26458332px"
         id="path4612"
         inkscape:connector-curvature="0" />
      <path
         d="m 64.171223,244.87454 h -4.162778 v -0.98778 q -2.151944,1.09362 -4.445,1.09362 -2.645833,0 -4.1275,-1.41112 -1.481666,-1.41111 -1.481666,-3.98639 0,-2.8575 1.975555,-4.33916 1.763889,-1.34056 4.656667,-1.34056 1.905,0 3.421944,0.81139 -0.07055,-2.78694 -3.245555,-2.78694 -2.187222,0 -3.280834,1.09361 l -1.481666,-2.64584 q 0.846666,-0.88194 2.504722,-1.37583 1.411111,-0.42333 2.786944,-0.42333 2.892778,0 4.762501,1.34055 2.116666,1.48167 2.116666,4.26861 z m -4.198055,-4.65667 v -1.905 q 0,-0.42333 -0.811389,-0.74083 -0.776111,-0.3175 -1.622778,-0.3175 -3.316111,0 -3.316111,2.2225 0,1.83445 2.892778,1.83445 0.564444,0 1.622777,-0.35278 1.234723,-0.38806 1.234723,-0.74084 z"
         style="font-style:normal;font-variant:normal;font-weight:bold;font-stretch:normal;font-size:35.27777863px;line-height:127.99999714%;font-family:'Blue Highway';-inkscape-font-specification:'Blue Highway Bold';text-align:center;text-anchor:middle;fill:#ffffff;fill-opacity:1;stroke-width:0.26458332px"
         id="path4614"
         inkscape:connector-curvature="0" />
      <path
         d="m 83.185881,242.65204 q -2.2225,2.57528 -6.103056,2.57528 -3.668889,0 -5.820833,-2.2225 -2.151945,-2.2225 -2.151945,-5.92667 0,-3.4925 2.257778,-5.82083 2.257778,-2.32833 5.715,-2.32833 3.316111,0 5.573889,2.15194 l -3.210278,2.43417 q -0.881944,-0.84667 -2.363611,-0.84667 -1.799167,0 -2.751667,1.37583 -0.846666,1.19945 -0.846666,3.06917 0,4.40972 3.633611,4.40972 1.622778,0 2.54,-0.98778 z"
         style="font-style:normal;font-variant:normal;font-weight:bold;font-stretch:normal;font-size:35.27777863px;line-height:127.99999714%;font-family:'Blue Highway';-inkscape-font-specification:'Blue Highway Bold';text-align:center;text-anchor:middle;fill:#ffffff;fill-opacity:1;stroke-width:0.26458332px"
         id="path4616"
         inkscape:connector-curvature="0" />
      <path
         d="m 97.120599,241.34676 -0.776111,3.4925 q -1.658055,0.35278 -2.928055,0.35278 -4.515556,0 -4.515556,-5.00944 v -7.47889 h -1.869722 v -3.52778 h 1.869722 v -2.57528 l 3.951111,-1.97555 v 4.55083 h 3.633611 v 3.52778 h -3.633611 v 5.715 q 0,3.42194 2.116667,3.42194 0.881944,0 2.151944,-0.49389 z"
         style="font-style:normal;font-variant:normal;font-weight:bold;font-stretch:normal;font-size:35.27777863px;line-height:127.99999714%;font-family:'Blue Highway';-inkscape-font-specification:'Blue Highway Bold';text-align:center;text-anchor:middle;fill:#ffffff;fill-opacity:1;stroke-width:0.26458332px"
         id="path4618"
         inkscape:connector-curvature="0" />
      <path
         d="m 118.11082,229.17593 -9.06639,22.11917 h -4.37445 l 2.54,-6.49111 -6.31472,-15.62806 h 4.37444 l 4.26862,10.40694 4.445,-10.40694 z"
         style="font-style:normal;font-variant:normal;font-weight:bold;font-stretch:normal;font-size:35.27777863px;line-height:127.99999714%;font-family:'Blue Highway';-inkscape-font-specification:'Blue Highway Bold';text-align:center;text-anchor:middle;fill:#ffffff;fill-opacity:1;stroke-width:0.26458332px"
         id="path4620"
         inkscape:connector-curvature="0" />
      <path
         d="M 127.10661,244.9451 H 122.838 v -18.87361 l 4.26861,-2.18723 z"
         style="font-style:normal;font-variant:normal;font-weight:bold;font-stretch:normal;font-size:35.27777863px;line-height:127.99999714%;font-family:'Blue Highway';-inkscape-font-specification:'Blue Highway Bold';text-align:center;text-anchor:middle;fill:#ffffff;fill-opacity:1;stroke-width:0.26458332px"
         id="path4622"
         inkscape:connector-curvature="0" />
      <path
         d="m 36.167817,264.10765 q 0,2.01083 -1.397,3.09033 -1.248833,0.97367 -3.344333,0.97367 -2.455333,0 -4.572,-1.0795 l 0.9525,-2.18017 q 0.550334,0.40217 1.7145,0.67734 1.016,0.23283 1.8415,0.23283 1.016,0 1.502833,-0.254 0.677334,-0.35983 0.677334,-1.29117 0,-1.10066 -1.735667,-1.62983 -3.175,-0.99483 -3.196166,-1.016 -1.7145,-0.84667 -1.7145,-2.7305 0,-1.62983 1.735666,-2.49767 1.397,-0.6985 3.196167,-0.6985 2.286,0 3.788833,1.016 l -0.762,2.20134 q -0.486833,-0.42334 -1.672167,-0.6985 -0.994833,-0.21167 -1.841499,-0.21167 -1.5875,0 -1.5875,1.03717 0,0.71966 1.672166,1.2065 2.4765,0.74083 3.069167,1.0795 1.672166,0.9525 1.672166,2.77283 z"
         style="font-style:normal;font-variant:normal;font-weight:bold;font-stretch:normal;font-size:21.16666603px;font-family:'Blue Highway';-inkscape-font-specification:'Blue Highway Bold';text-align:center;text-anchor:middle;fill:#ffffff;fill-opacity:1;stroke-width:0.26458332px"
         id="path4624"
         inkscape:connector-curvature="0" />
      <path
         d="m 44.507466,265.86448 -0.465667,2.0955 q -0.994833,0.21167 -1.756833,0.21167 -2.709333,0 -2.709333,-3.00567 v -4.48733 h -1.121834 v -2.11667 h 1.121834 v -1.54516 l 2.370666,-1.18534 v 2.7305 h 2.180167 v 2.11667 h -2.180167 v 3.429 q 0,2.05317 1.27,2.05317 0.529167,0 1.291167,-0.29634 z"
         style="font-style:normal;font-variant:normal;font-weight:bold;font-stretch:normal;font-size:21.16666603px;font-family:'Blue Highway';-inkscape-font-specification:'Blue Highway Bold';text-align:center;text-anchor:middle;fill:#ffffff;fill-opacity:1;stroke-width:0.26458332px"
         id="path4626"
         inkscape:connector-curvature="0" />
      <path
         d="m 55.598763,267.98115 h -2.497666 v -0.59267 q -1.291167,0.65617 -2.667,0.65617 -1.5875,0 -2.4765,-0.84667 -0.889,-0.84666 -0.889,-2.39183 0,-1.7145 1.185333,-2.6035 1.058333,-0.80433 2.794,-0.80433 1.143,0 2.053167,0.48683 -0.04233,-1.67217 -1.947334,-1.67217 -1.312333,0 -1.9685,0.65617 l -0.889,-1.5875 q 0.508,-0.52917 1.502834,-0.8255 0.846666,-0.254 1.672166,-0.254 1.735667,0 2.8575,0.80433 1.27,0.889 1.27,2.56117 z m -2.518833,-2.794 v -1.143 q 0,-0.254 -0.486833,-0.4445 -0.465667,-0.1905 -0.973667,-0.1905 -1.989667,0 -1.989667,1.3335 0,1.10067 1.735667,1.10067 0.338667,0 0.973667,-0.21167 0.740833,-0.23283 0.740833,-0.4445 z"
         style="font-style:normal;font-variant:normal;font-weight:bold;font-stretch:normal;font-size:21.16666603px;font-family:'Blue Highway';-inkscape-font-specification:'Blue Highway Bold';text-align:center;text-anchor:middle;fill:#ffffff;fill-opacity:1;stroke-width:0.26458332px"
         id="path4628"
         inkscape:connector-curvature="0" />
      <path
         d="m 64.57339,258.73132 -0.867833,2.49766 q -0.529167,-0.3175 -0.931334,-0.3175 -0.677333,0 -1.143,0.46567 -0.4445,0.4445 -0.4445,1.12183 v 5.5245 h -2.3495 v -9.44033 h 2.3495 v 0.71967 q 0.8255,-0.93134 2.053167,-0.93134 0.804333,0 1.3335,0.35984 z"
         style="font-style:normal;font-variant:normal;font-weight:bold;font-stretch:normal;font-size:21.16666603px;font-family:'Blue Highway';-inkscape-font-specification:'Blue Highway Bold';text-align:center;text-anchor:middle;fill:#ffffff;fill-opacity:1;stroke-width:0.26458332px"
         id="path4630"
         inkscape:connector-curvature="0" />
      <path
         d="m 72.637855,265.86448 -0.465667,2.0955 q -0.994833,0.21167 -1.756833,0.21167 -2.709333,0 -2.709333,-3.00567 v -4.48733 h -1.121834 v -2.11667 h 1.121834 v -1.54516 l 2.370666,-1.18534 v 2.7305 h 2.180167 v 2.11667 h -2.180167 v 3.429 q 0,2.05317 1.27,2.05317 0.529167,0 1.291167,-0.29634 z"
         style="font-style:normal;font-variant:normal;font-weight:bold;font-stretch:normal;font-size:21.16666603px;font-family:'Blue Highway';-inkscape-font-specification:'Blue Highway Bold';text-align:center;text-anchor:middle;fill:#ffffff;fill-opacity:1;stroke-width:0.26458332px"
         id="path4632"
         inkscape:connector-curvature="0" />
      <path
         d="M 84.279483,264.46748 H 77.63315 q -0.02117,0.52917 0.550333,0.97367 0.486833,0.40217 1.037167,0.48683 0.275166,0.0423 0.592666,0.0423 1.121834,0 1.629834,-0.71967 l 1.820333,1.35467 q -0.5715,0.74083 -1.524,1.16416 -0.9525,0.42334 -1.926167,0.42334 -2.180166,0 -3.4925,-1.31234 -1.291166,-1.3335 -1.291166,-3.51366 0,-2.3495 1.27,-3.70417 1.27,-1.35467 3.577166,-1.35467 2.264834,0 3.4925,1.92617 0.910167,1.41817 0.910167,4.23333 z m -2.54,-2.01083 q 0,-0.84667 -0.592667,-1.41817 -0.5715,-0.59266 -1.418166,-0.59266 -0.846667,0 -1.481667,0.59266 -0.635,0.5715 -0.635,1.41817 z"
         style="font-style:normal;font-variant:normal;font-weight:bold;font-stretch:normal;font-size:21.16666603px;font-family:'Blue Highway';-inkscape-font-specification:'Blue Highway Bold';text-align:center;text-anchor:middle;fill:#ffffff;fill-opacity:1;stroke-width:0.26458332px"
         id="path4634"
         inkscape:connector-curvature="0" />
      <path
         d="m 92.851943,258.73132 -0.867833,2.49766 q -0.529167,-0.3175 -0.931334,-0.3175 -0.677333,0 -1.143,0.46567 -0.4445,0.4445 -0.4445,1.12183 v 5.5245 h -2.3495 v -9.44033 h 2.3495 v 0.71967 q 0.8255,-0.93134 2.053167,-0.93134 0.804333,0 1.3335,0.35984 z"
         style="font-style:normal;font-variant:normal;font-weight:bold;font-stretch:normal;font-size:21.16666603px;font-family:'Blue Highway';-inkscape-font-specification:'Blue Highway Bold';text-align:center;text-anchor:middle;fill:#ffffff;fill-opacity:1;stroke-width:0.26458332px"
         id="path4636"
         inkscape:connector-curvature="0" />
      <path
         d="m 113.6587,268.02348 h -3.45017 l -2.8575,-4.7625 -1.69333,2.032 v 2.7305 h -2.81517 v -12.14966 h 2.81517 v 5.9055 l 4.5085,-5.9055 h 3.25967 l -4.29684,5.22816 z"
         style="font-style:normal;font-variant:normal;font-weight:bold;font-stretch:normal;font-size:21.16666603px;font-family:'Blue Highway';-inkscape-font-specification:'Blue Highway Bold';text-align:center;text-anchor:middle;fill:#ffffff;fill-opacity:1;stroke-width:0.26458332px"
         id="path4638"
         inkscape:connector-curvature="0" />
      <path
         d="m 119.11967,256.67815 q 0,0.5715 -0.42333,0.97367 -0.40217,0.40216 -0.97367,0.40216 -0.5715,0 -0.99483,-0.40216 -0.40217,-0.40217 -0.40217,-0.97367 0,-0.59267 0.40217,-0.99483 0.42333,-0.40217 0.99483,-0.40217 0.5715,0 0.97367,0.40217 0.42333,0.40216 0.42333,0.99483 z m -0.14817,11.34533 h -2.54 v -9.41916 h 2.54 z"
         style="font-style:normal;font-variant:normal;font-weight:bold;font-stretch:normal;font-size:21.16666603px;font-family:'Blue Highway';-inkscape-font-specification:'Blue Highway Bold';text-align:center;text-anchor:middle;fill:#ffffff;fill-opacity:1;stroke-width:0.26458332px"
         id="path4640"
         inkscape:connector-curvature="0" />
      <path
         d="m 127.75565,265.86448 -0.46566,2.0955 q -0.99484,0.21167 -1.75684,0.21167 -2.70933,0 -2.70933,-3.00567 v -4.48733 h -1.12183 v -2.11667 h 1.12183 v -1.54516 l 2.37067,-1.18534 v 2.7305 h 2.18016 v 2.11667 h -2.18016 v 3.429 q 0,2.05317 1.27,2.05317 0.52916,0 1.29116,-0.29634 z"
         style="font-style:normal;font-variant:normal;font-weight:bold;font-stretch:normal;font-size:21.16666603px;font-family:'Blue Highway';-inkscape-font-specification:'Blue Highway Bold';text-align:center;text-anchor:middle;fill:#ffffff;fill-opacity:1;stroke-width:0.26458332px"
         id="path4642"
         inkscape:connector-curvature="0" />
    </g>
    <rect
       style="fill:#ffffff;fill-opacity:1;stroke:#000000;stroke-width:0;stroke-miterlimit:4;stroke-dasharray:none;stroke-dashoffset:0;stroke-opacity:1;filter:url(#filter4608)"
       id="rect4579"
       width="30.61607"
       height="63.688984"
       x="100.1637"
       y="214.50668"
       clip-path="url(#clipPath4697)" />
  </g>
</svg>
